<svg xmlns="http://www.w3.org/2000/svg" style="cursor: move;" width="1850" height="968"><g transform="translate(-510.88396912251187,-331.1970444586808) scale(1.6065879935140674)"><path class="link" style="stroke-width: 0.5px; stroke-opacity: 1; stroke: rgb(80, 80, 80); fill: none;" marker-end="" d="M765,415.5, 945,334"></path><path class="link" style="stroke-width: 0.5px; stroke-opacity: 1; stroke: rgb(80, 80, 80); fill: none;" marker-end="" d="M765,415.5, 945,374"></path><path class="link" style="stroke-width: 0.5px; stroke-opacity: 1; stroke: rgb(80, 80, 80); fill: none;" marker-end="" d="M765,415.5, 945,414"></path><path class="link" style="stroke-width: 0.5px; stroke-opacity: 1; stroke: rgb(80, 80, 80); fill: none;" marker-end="" d="M765,415.5, 945,454"></path><path class="link" style="stroke-width: 0.5px; stroke-opacity: 1; stroke: rgb(80, 80, 80); fill: none;" marker-end="" d="M765,415.5, 945,494"></path><path class="link" style="stroke-width: 0.5px; stroke-opacity: 1; stroke: rgb(80, 80, 80); fill: none;" marker-end="" d="M765,415.5, 945,534"></path><path class="link" style="stroke-width: 0.5px; stroke-opacity: 1; stroke: rgb(80, 80, 80); fill: none;" marker-end="" d="M765,415.5, 945,574"></path><path class="link" style="stroke-width: 0.5px; stroke-opacity: 1; stroke: rgb(80, 80, 80); fill: none;" marker-end="" d="M765,415.5, 945,614"></path><path class="link" style="stroke-width: 0.5px; stroke-opacity: 1; stroke: rgb(80, 80, 80); fill: none;" marker-end="" d="M765,454.5, 945,334"></path><path class="link" style="stroke-width: 0.5px; stroke-opacity: 1; stroke: rgb(80, 80, 80); fill: none;" marker-end="" d="M765,454.5, 945,374"></path><path class="link" style="stroke-width: 0.5px; stroke-opacity: 1; stroke: rgb(80, 80, 80); fill: none;" marker-end="" d="M765,454.5, 945,414"></path><path class="link" style="stroke-width: 0.5px; stroke-opacity: 1; stroke: rgb(80, 80, 80); fill: none;" marker-end="" d="M765,454.5, 945,454"></path><path class="link" style="stroke-width: 0.5px; stroke-opacity: 1; stroke: rgb(80, 80, 80); fill: none;" marker-end="" d="M765,454.5, 945,494"></path><path class="link" style="stroke-width: 0.5px; stroke-opacity: 1; stroke: rgb(80, 80, 80); fill: none;" marker-end="" d="M765,454.5, 945,534"></path><path class="link" style="stroke-width: 0.5px; stroke-opacity: 1; stroke: rgb(80, 80, 80); fill: none;" marker-end="" d="M765,454.5, 945,574"></path><path class="link" style="stroke-width: 0.5px; stroke-opacity: 1; stroke: rgb(80, 80, 80); fill: none;" marker-end="" d="M765,454.5, 945,614"></path><path class="link" style="stroke-width: 0.5px; stroke-opacity: 1; stroke: rgb(80, 80, 80); fill: none;" marker-end="" d="M765,493.5, 945,334"></path><path class="link" style="stroke-width: 0.5px; stroke-opacity: 1; stroke: rgb(80, 80, 80); fill: none;" marker-end="" d="M765,493.5, 945,374"></path><path class="link" style="stroke-width: 0.5px; stroke-opacity: 1; stroke: rgb(80, 80, 80); fill: none;" marker-end="" d="M765,493.5, 945,414"></path><path class="link" style="stroke-width: 0.5px; stroke-opacity: 1; stroke: rgb(80, 80, 80); fill: none;" marker-end="" d="M765,493.5, 945,454"></path><path class="link" style="stroke-width: 0.5px; stroke-opacity: 1; stroke: rgb(80, 80, 80); fill: none;" marker-end="" d="M765,493.5, 945,494"></path><path class="link" style="stroke-width: 0.5px; stroke-opacity: 1; stroke: rgb(80, 80, 80); fill: none;" marker-end="" d="M765,493.5, 945,534"></path><path class="link" style="stroke-width: 0.5px; stroke-opacity: 1; stroke: rgb(80, 80, 80); fill: none;" marker-end="" d="M765,493.5, 945,574"></path><path class="link" style="stroke-width: 0.5px; stroke-opacity: 1; stroke: rgb(80, 80, 80); fill: none;" marker-end="" d="M765,493.5, 945,614"></path><path class="link" style="stroke-width: 0.5px; stroke-opacity: 1; stroke: rgb(80, 80, 80); fill: none;" marker-end="" d="M765,532.5, 945,334"></path><path class="link" style="stroke-width: 0.5px; stroke-opacity: 1; stroke: rgb(80, 80, 80); fill: none;" marker-end="" d="M765,532.5, 945,374"></path><path class="link" style="stroke-width: 0.5px; stroke-opacity: 1; stroke: rgb(80, 80, 80); fill: none;" marker-end="" d="M765,532.5, 945,414"></path><path class="link" style="stroke-width: 0.5px; stroke-opacity: 1; stroke: rgb(80, 80, 80); fill: none;" marker-end="" d="M765,532.5, 945,454"></path><path class="link" style="stroke-width: 0.5px; stroke-opacity: 1; stroke: rgb(80, 80, 80); fill: none;" marker-end="" d="M765,532.5, 945,494"></path><path class="link" style="stroke-width: 0.5px; stroke-opacity: 1; stroke: rgb(80, 80, 80); fill: none;" marker-end="" d="M765,532.5, 945,534"></path><path class="link" style="stroke-width: 0.5px; stroke-opacity: 1; stroke: rgb(80, 80, 80); fill: none;" marker-end="" d="M765,532.5, 945,574"></path><path class="link" style="stroke-width: 0.5px; stroke-opacity: 1; stroke: rgb(80, 80, 80); fill: none;" marker-end="" d="M765,532.5, 945,614"></path><path class="link" style="stroke-width: 0.5px; stroke-opacity: 1; stroke: rgb(80, 80, 80); fill: none;" marker-end="" d="M945,334, 1125,454"></path><path class="link" style="stroke-width: 0.5px; stroke-opacity: 1; stroke: rgb(80, 80, 80); fill: none;" marker-end="" d="M945,374, 1125,454"></path><path class="link" style="stroke-width: 0.5px; stroke-opacity: 1; stroke: rgb(80, 80, 80); fill: none;" marker-end="" d="M945,414, 1125,454"></path><path class="link" style="stroke-width: 0.5px; stroke-opacity: 1; stroke: rgb(80, 80, 80); fill: none;" marker-end="" d="M945,454, 1125,454"></path><path class="link" style="stroke-width: 0.5px; stroke-opacity: 1; stroke: rgb(80, 80, 80); fill: none;" marker-end="" d="M945,494, 1125,454"></path><path class="link" style="stroke-width: 0.5px; stroke-opacity: 1; stroke: rgb(80, 80, 80); fill: none;" marker-end="" d="M945,534, 1125,454"></path><path class="link" style="stroke-width: 0.5px; stroke-opacity: 1; stroke: rgb(80, 80, 80); fill: none;" marker-end="" d="M945,574, 1125,454"></path><path class="link" style="stroke-width: 0.5px; stroke-opacity: 1; stroke: rgb(80, 80, 80); fill: none;" marker-end="" d="M945,614, 1125,454"></path><path class="link" style="stroke-width: 0.5px; stroke-opacity: 1; stroke: rgb(80, 80, 80); fill: none;" marker-end="" d="M945,334, 1125,494"></path><path class="link" style="stroke-width: 0.5px; stroke-opacity: 1; stroke: rgb(80, 80, 80); fill: none;" marker-end="" d="M945,374, 1125,494"></path><path class="link" style="stroke-width: 0.5px; stroke-opacity: 1; stroke: rgb(80, 80, 80); fill: none;" marker-end="" d="M945,414, 1125,494"></path><path class="link" style="stroke-width: 0.5px; stroke-opacity: 1; stroke: rgb(80, 80, 80); fill: none;" marker-end="" d="M945,454, 1125,494"></path><path class="link" style="stroke-width: 0.5px; stroke-opacity: 1; stroke: rgb(80, 80, 80); fill: none;" marker-end="" d="M945,494, 1125,494"></path><path class="link" style="stroke-width: 0.5px; stroke-opacity: 1; stroke: rgb(80, 80, 80); fill: none;" marker-end="" d="M945,534, 1125,494"></path><path class="link" style="stroke-width: 0.5px; stroke-opacity: 1; stroke: rgb(80, 80, 80); fill: none;" marker-end="" d="M945,574, 1125,494"></path><path class="link" style="stroke-width: 0.5px; stroke-opacity: 1; stroke: rgb(80, 80, 80); fill: none;" marker-end="" d="M945,614, 1125,494"></path><circle r="10" class="node" id="0_0" style="fill: rgb(255, 255, 255); stroke: rgb(51, 51, 51);" cx="765" cy="415.5"></circle><circle r="10" class="node" id="0_1" style="fill: rgb(255, 255, 255); stroke: rgb(51, 51, 51);" cx="765" cy="454.5"></circle><circle r="10" class="node" id="0_2" style="fill: rgb(255, 255, 255); stroke: rgb(51, 51, 51);" cx="765" cy="493.5"></circle><circle r="10" class="node" id="0_3" style="fill: rgb(255, 255, 255); stroke: rgb(51, 51, 51);" cx="765" cy="532.5"></circle><circle r="10" class="node" id="1_0" style="fill: rgb(255, 255, 255); stroke: rgb(51, 51, 51);" cx="945" cy="334"></circle><circle r="10" class="node" id="1_1" style="fill: rgb(255, 255, 255); stroke: rgb(51, 51, 51);" cx="945" cy="374"></circle><circle r="10" class="node" id="1_2" style="fill: rgb(255, 255, 255); stroke: rgb(51, 51, 51);" cx="945" cy="414"></circle><circle r="10" class="node" id="1_3" style="fill: rgb(255, 255, 255); stroke: rgb(51, 51, 51);" cx="945" cy="454"></circle><circle r="10" class="node" id="1_4" style="fill: rgb(255, 255, 255); stroke: rgb(51, 51, 51);" cx="945" cy="494"></circle><circle r="10" class="node" id="1_5" style="fill: rgb(255, 255, 255); stroke: rgb(51, 51, 51);" cx="945" cy="534"></circle><circle r="10" class="node" id="1_6" style="fill: rgb(255, 255, 255); stroke: rgb(51, 51, 51);" cx="945" cy="574"></circle><circle r="10" class="node" id="1_7" style="fill: rgb(255, 255, 255); stroke: rgb(51, 51, 51);" cx="945" cy="614"></circle><circle r="10" class="node" id="2_0" style="fill: rgb(255, 255, 255); stroke: rgb(51, 51, 51);" cx="1125" cy="454"></circle><text class="text" dy=".35em" style="font-size: 12px;" x="730" y="654">Input Layer ∈ ℝ⁴</text><text class="text" dy=".35em" style="font-size: 12px;" x="910" y="654">Hidden Layer ∈ ℝ⁸</text><text class="text" dy=".35em" style="font-size: 12px;" x="1090" y="654">Output Layer ∈ ℝ²</text><circle r="10" class="node" id="2_1" style="fill: rgb(255, 255, 255); stroke: rgb(51, 51, 51);" cx="1125" cy="494"></circle></g><defs><marker id="arrow" viewBox="0 -5 10 10" markerWidth="7" markerHeight="7" orient="auto" refX="40"><path d="M0,-5L10,0L0,5" style="stroke: rgb(80, 80, 80); fill: none;"></path></marker></defs></svg>